<svg width="274" height="117" viewBox="0 0 274 117" fill="none" xmlns="http://www.w3.org/2000/svg">
<path d="M14.0413 57.7661L6.8587 55.1134C5.27051 54.2571 4.47642 52.9756 4.47642 51.2869C4.47642 50.5803 4.62569 49.8857 4.93019 49.203C5.38396 48.3707 5.96311 47.7719 6.66764 47.4006C7.37217 47.0353 8.19014 46.8497 9.12156 46.8497C10.3814 46.8497 11.5397 47.209 12.5964 47.9276C13.6532 48.6461 14.322 49.5923 14.5966 50.754L17.5819 49.3527C17.152 48.0114 16.4057 46.8916 15.331 45.9814C14.2622 45.0712 13.2532 44.5203 12.3099 44.3347C11.3665 44.143 10.7814 44.0352 10.5545 44.0113C10.3276 43.9873 10.0112 43.9754 9.61115 43.9754C8.67973 43.9754 7.61696 44.0951 6.41687 44.3347C5.22275 44.5742 4.11819 45.2509 3.10915 46.3647C2.10012 47.4785 1.50306 48.5324 1.312 49.5324C1.12094 50.5324 1.03138 51.2211 1.03138 51.5983C1.03138 53.0894 1.47321 54.4247 2.35686 55.5984C3.24051 56.7721 4.39881 57.7003 5.83175 58.3829L10.6679 60.0896C11.6232 60.5147 12.2621 60.8321 12.5785 61.0357C12.895 61.2393 13.3189 61.6285 13.8622 62.2094C14.4055 62.7902 14.6742 63.6825 14.6742 64.8921C14.6742 65.7005 14.5011 66.467 14.1667 67.1975C13.8264 67.9281 13.3726 68.5089 12.8054 68.9341C12.2382 69.3652 11.6591 69.6706 11.068 69.8563C10.4769 70.0479 9.87982 70.1377 9.27082 70.1377C7.73637 70.1377 6.39896 69.6048 5.26454 68.5449C4.13013 67.4849 3.56292 66.1556 3.56292 64.5627L0.5 66.1196C0.876148 67.4311 1.30006 68.5029 1.76577 69.3233C2.23148 70.1437 2.90615 70.8862 3.7898 71.5389C5.42575 72.527 7.22887 73.018 9.1932 73.018C11.3844 73.018 13.3607 72.4012 15.128 71.1677C16.1131 70.3114 16.8475 69.3293 17.3371 68.2155C17.8267 67.1077 18.0715 65.946 18.0715 64.7364C18.0715 63.3232 17.7252 61.9938 17.0326 60.7482C16.34 59.5027 15.337 58.5087 14.0294 57.7781L14.0413 57.7661Z" fill="white"/>
<path d="M52.8921 46.7539C51.5427 45.5323 49.8769 44.8077 47.8827 44.5802L38.8134 44.4664V72.515H42.2524V59.856H48.0917C50.1277 59.6524 51.7696 58.856 53.0294 57.4548C54.2832 56.0535 54.9161 54.3708 54.9161 52.4067V51.4247C54.9161 49.5324 54.2414 47.9755 52.8921 46.7539ZM50.4561 55.1792C49.8232 56.0954 48.9694 56.7182 47.8887 57.0476H42.2584V47.4605H46.7961C47.4528 47.5623 48.0678 47.712 48.647 47.9156C49.5784 48.2928 50.271 48.8617 50.7247 49.6162C51.1785 50.3707 51.4054 51.2151 51.4054 52.1432C51.4054 53.2511 51.0889 54.2631 50.462 55.1852L50.4561 55.1792Z" fill="white"/>
<path d="M81.3122 43.664L69.0306 72.509H72.6488L76.2371 63.7902H87.3843L90.9607 72.503H94.8833L82.2197 43.658H81.3122V43.664ZM77.0671 61.2513L81.6047 49.1432L86.3036 61.2513H77.0671Z" fill="white"/>
<path d="M122.527 72.5509C123.877 72.2456 125.202 71.8204 126.516 71.2635V67.3233L124.551 68.5748C122.885 69.6107 121.011 70.1257 118.921 70.1257C116.981 70.1257 115.07 69.6527 113.195 68.7065C111.32 67.7604 109.846 66.3412 108.771 64.4609C107.702 62.5806 107.165 60.5626 107.165 58.4129C107.165 57.1733 107.35 55.9637 107.714 54.772C108.078 53.5864 108.604 52.4846 109.284 51.4726C110.467 49.8797 111.882 48.7 113.518 47.9276C115.154 47.1551 116.921 46.7718 118.808 46.7718C121.602 46.7718 124.175 47.6042 126.516 49.2749V45.5622L124.438 44.6161C123.405 44.3107 122.372 44.0772 121.339 43.9155C120.306 43.7538 119.321 43.67 118.39 43.67C117.757 43.67 117.112 43.7059 116.443 43.7837C115.774 43.8616 115.118 43.9754 114.479 44.1251C113.84 44.2748 113.004 44.5622 111.983 44.9754C110.962 45.3946 109.893 46.1131 108.771 47.1371C107.649 48.1611 106.502 49.6342 105.332 51.5504C104.162 53.4726 103.577 55.7721 103.577 58.4488C103.577 62.5687 105.063 66.1436 108.037 69.1736C109.499 70.4611 111.111 71.4252 112.873 72.0539C114.634 72.6827 116.491 73.0001 118.431 73.0001C119.817 73.0001 121.184 72.8504 122.533 72.545L122.527 72.5509Z" fill="white"/>
<path d="M215.09 44.4604H211.615V72.515H225.407V69.479H215.09V44.4604Z" fill="white"/>
<path d="M240.936 44.4604H237.647V72.509H240.936V44.4604Z" fill="white"/>
<path d="M264.389 57.7661L272.401 44.4604L268.604 44.4724L262.538 55.0595L256.418 44.4604H252.221L260.574 57.7661L251.809 72.515L255.672 72.521L262.317 60.383L269.327 72.521L273.5 72.515L264.389 57.7661Z" fill="white"/>
<path d="M167.946 47.9515L167.08 44.4664H146.451L136.319 57.4967H121.459C120.861 56.4727 119.757 55.7841 118.485 55.7841C116.581 55.7841 115.04 57.329 115.04 59.2392C115.04 61.1495 116.581 62.6944 118.485 62.6944C119.751 62.6944 120.861 62.0058 121.459 60.9818H136.391L146.451 71.8503H157.67C158.267 72.8743 159.372 73.563 160.644 73.563C162.548 73.563 164.089 72.018 164.089 70.1078C164.089 68.1975 162.548 66.6526 160.644 66.6526C159.378 66.6526 158.267 67.3412 157.67 68.3652H147.968L141.114 60.9818H169.265V57.4967H141.012L147.968 47.9515H167.946ZM160.632 68.449H160.644C161.557 68.449 162.297 69.1916 162.297 70.1078C162.297 71.024 161.557 71.7665 160.644 71.7665C160.453 71.7665 160.273 71.7246 160.1 71.6647C159.455 71.4371 158.99 70.8263 158.99 70.1018C158.99 69.1916 159.724 68.449 160.632 68.4431V68.449Z" fill="white"/>
<path d="M200.109 42.7478C198.844 42.7478 197.733 43.4364 197.136 44.4604H175.612C169.271 19.0526 146.356 -1.22938 117.279 0.0580801C179.164 3.92644 195.482 84.8626 139.239 111.672C132.391 114.792 124.904 116.528 117.279 116.929C124.91 117.325 132.671 116.055 139.914 113.3C154.554 107.743 166.596 95.9887 172.68 81.5093C175.552 74.7366 177.039 67.8023 177.314 60.9818H188.676C189.273 62.0058 190.377 62.6944 191.649 62.6944C193.554 62.6944 195.094 61.1495 195.094 59.2392C195.094 57.329 193.554 55.7841 191.649 55.7841C190.383 55.7841 189.273 56.4727 188.676 57.4967H177.349C177.284 54.269 176.949 51.0773 176.364 47.9515H197.13C197.727 48.9755 198.832 49.6641 200.103 49.6641C202.008 49.6641 203.548 48.1192 203.548 46.209C203.548 44.2987 202.008 42.7538 200.103 42.7538L200.109 42.7478ZM191.171 57.6524C191.321 57.6045 191.482 57.5745 191.649 57.5745C192.562 57.5745 193.303 58.3171 193.303 59.2332C193.303 60.1494 192.562 60.892 191.649 60.892C191.482 60.892 191.327 60.862 191.171 60.8141C190.491 60.6045 189.995 59.9818 189.995 59.2332C189.995 58.4847 190.497 57.856 191.171 57.6524ZM200.109 47.8617C199.196 47.8617 198.455 47.1192 198.455 46.203C198.455 45.2868 199.196 44.5442 200.109 44.5442C201.023 44.5442 201.763 45.2868 201.763 46.203C201.763 47.1192 201.023 47.8617 200.109 47.8617Z" fill="white"/>
</svg>
